<svg id="Icon1" xmlns="http://www.w3.org/2000/svg" viewBox="0 0 199.95 199.95"><title>Icon1</title><path d="M152.93,163.13l-41.24-41.21c-9.52,5.22-19.28,3.68-28.49-3.19L50.73,140.38c-2.88,18.14-10.1,26.85-23.15,28.24A25.17,25.17,0,0,1,1.66,152.54,24.78,24.78,0,0,1,10,123.91c10.59-8,21.47-6.64,35.71,4.63,5-3.28,10.19-6.65,15.35-10.08,5-3.3,9.9-6.66,14.72-9.9-3-20.33,6.31-31.72,26.2-34.26l9.17-27.56c-12.29-14-14.21-24.85-6.58-35.9a24.66,24.66,0,0,1,29-9.25,25.06,25.06,0,0,1,16.35,25.73c-1.21,12.77-10,20.57-26.71,23.28q-4.59,13.62-9.41,28c10.52,9.31,14.53,20.22,8.46,32.64l41.46,41.35c15.22-4.64,26.26-1.5,32.94,10A24.88,24.88,0,0,1,161.68,196C150.83,189.08,147.85,177.8,152.93,163.13Z" transform="translate(-0.05 -0.05)" style="fill:#888"/><path d="M137.41,25.16a12.39,12.39,0,1,1-24.77-.35,12.39,12.39,0,0,1,24.77.35Z" transform="translate(-0.05 -0.05)" style="fill:#fff"/><path d="M112.4,99.88A12.39,12.39,0,1,1,99.89,87.63,12.79,12.79,0,0,1,112.4,99.88Z" transform="translate(-0.05 -0.05)" style="fill:#fff"/><path d="M37.37,143.87a12.8,12.8,0,0,1-12.48,12.3,12.39,12.39,0,0,1,.19-24.78A12.79,12.79,0,0,1,37.37,143.87Z" transform="translate(-0.05 -0.05)" style="fill:#fff"/><path d="M187.43,175.07a12.39,12.39,0,1,1-12.36-12.42A12.8,12.8,0,0,1,187.43,175.07Z" transform="translate(-0.05 -0.05)" style="fill:#fcfcfc"/></svg>