<svg id="Icon4" xmlns="http://www.w3.org/2000/svg" viewBox="0 0 199.46 148.03"><title>Icon4</title><path d="M44.66,97.33C40.1,106,34.31,113,25.54,117.05a40.3,40.3,0,0,1-17.71,4c-6.9-.09-9.8-5-6.15-11A100.81,100.81,0,0,0,9.92,92.86c5-13.13,1.56-25-4.62-36.66C4.16,54,2.84,52,1.77,49.79.52,47.22.17,44.53,2,42.08S6.4,39.25,9.3,39.5c13.93,1.23,23.76,9.07,32,19.59l2.56,3.3A201.34,201.34,0,0,1,69.38,44C75.45,40.29,73,28.83,68,24.86c-2.8-2.24-3.46-4.5-2-6.95,3-5,15-9.88,34.77-12.92,12.91-2,27-1.37,33.88,4.42S145.3,22.76,148,31a5.93,5.93,0,0,0,4.23,4.23c19.69,6.88,34.46,19.56,44.6,37.77,3.8,6.83,3.81,13.16-.71,19.81-12,17.67-29.21,27.06-49.58,31.41-2.93.62-4.35,1.59-5.55,4.65-7.13,18.17-22.77,25.87-41.48,22.26-4.1-.79-5.17-4-4.58-7.85.64-4.15,1.58-8.26,2-12.43.38-3.7-.78-6.32-5.14-7.32-8.79-2-16.85-6-24.68-10.41A154.88,154.88,0,0,1,44.66,97.33Z" transform="translate(-0.1 -3.97)" style="fill:#888"/><path d="M11.29,111.77c5.1-9.9,9.47-19.94,9.9-31.15.43-11.41-4.36-21.34-9.66-31.65C19.24,50,24.64,54.14,29.52,59A56.26,56.26,0,0,1,37.7,69.61c3.06,5,5.17,5.36,9.58,1.55,16.27-14,33.56-26.66,55-31.16,28.91-6.07,67.88,3.31,86.08,36,2.74,4.93,2.83,8.62-.59,13.27-13.22,18-31.95,25-53,28.14-34.31,5.12-62.49-7.22-87.33-29.66-4.54-4.1-7.39-3.44-9.51,2.38C33.22,102.89,23.11,111.22,11.29,111.77Z" transform="translate(-0.1 -3.97)" style="fill:#fefefe"/><path d="M75,21.88c4-4,13.94-7.4,22.85-8.94,6-1,22.59-3.18,28.8,1,7,4.72,9,9,12,17.55-9.95-1.64-19.5-2.55-29.07-1.71a83.39,83.39,0,0,0-28,7.89C80.92,30.82,78.94,24.86,75,21.88Z" transform="translate(-0.1 -3.97)" style="fill:#fefefe"/><path d="M104.16,142.12c.88-4.89,2-9.78,1.46-15.34a191.08,191.08,0,0,0,26.12-.17C130.49,136.52,116.21,144.54,104.16,142.12Z" transform="translate(-0.1 -3.97)" style="fill:#fdfdfd"/><path d="M154.31,67.57a8.34,8.34,0,0,1,8.57,8.34,8.58,8.58,0,0,1-8.29,8.73A8.79,8.79,0,0,1,145.74,76,8.58,8.58,0,0,1,154.31,67.57Z" transform="translate(-0.1 -3.97)" style="fill:#888"/></svg>