<svg id="Icon5" xmlns="http://www.w3.org/2000/svg" viewBox="0 0 183.34 199.97"><title>Icon5</title><path d="M91.42,184.42V175c-6.71-1-13.37-2-19.7-4.33-21.29-7.73-38-21.27-50.66-39.95-2.67-3.93-5.11-7.84-9.77-9.91-3-1.34-3.49-5.16-1.47-8,.69-1,1.58-1.83,2.45-2.83-1.48-.65-2.86-1.19-4.18-1.86-4-2.08-4.76-5.85-1.76-9.34,2.58-3,6.3-4.05,10-5.67-3-3.42-6.15-6.54-8.61-10.19C4,77.39,1,71.54.19,64.79A14.39,14.39,0,0,1,1,57.6a5.43,5.43,0,0,1,8.67-2.32A12.15,12.15,0,0,1,11.4,57C25.24,73,43.66,80,63.78,83.63a106.92,106.92,0,0,0,24.56,1.64c8.07-.4,13.58-4.74,17.72-11.22,3.89-6.09,6-13,8.45-19.67,1.56-4.32,3.1-8.64,4.92-12.86a52.4,52.4,0,0,1,7.08-11.9c-4.05-4.37-5.91-9.28-3.5-14.89,2.11-4.9,5.68-8.2,11.39-8.34a4,4,0,0,0,2.87-1.08c8.19-7.62,15-7.06,21.87,1.83,5.46-.72,9.79,1.42,12.27,6.35,2.7,5.35,1.76,10.51-2.18,15.2a23.11,23.11,0,0,1,5.82,11.8,3.93,3.93,0,0,0,1.42,2.36c5.63,5,7.1,11.59,6.91,18.72-.12,4.6-3.08,6.33-7.06,4-3.35-2-7.66-3.89-10.65-3-3.52,2.32-5.57,10.79-4.82,17.1.89,7.41,3.51,14.45,4.7,21.8,2.16,13.28,2.42,26.36-3.94,38.77-6.11,11.92-15.76,20.06-27.62,25.85a87.48,87.48,0,0,1-33.14,8.74,23.22,23.22,0,0,0-.13,7.9c5.16.7,10.15,1.86,14.29,5.14a32.53,32.53,0,0,1,4.76,4.39c1.91,2.23,1.77,4.83-.16,6.5-2.13,1.84-4.2,1.41-6.13-.41a39.53,39.53,0,0,0-3.57-3.3c-7-5.08-15.17-4.35-21.75,1.86-.39.37-.75.78-1.11,1.19-1.79,2.06-3.89,2.39-6.11.84-2-1.36-2.12-4.14-.46-6.51,1.92-2.73,4.64-4.51,7.42-6.2C88.93,185.63,90,185.13,91.42,184.42Z" transform="translate(-0.06)" style="fill:#888"/><path d="M177.6,58.41c-2.44-2.44-7.8-4.22-9.52-4.48-5.55-.86-8.88,2.09-11.53,6.42-5.31,8.7-5.09,18-2.87,27.44,2.06,8.81,4.48,17.52,4.85,26.66.72,18-7.37,31.42-22.28,40.5-15.71,9.57-32.9,13.46-51.34,10.05-1.29-.23-2.71-.16-3.78-1.47,10.71-1.11,20-5.14,27.28-13,6.83-7.33,10.6-16.22,12.23-26a55.87,55.87,0,0,0,.81-8c.07-3.54-1.45-5.42-4-5.53s-4.76,1.94-4.82,5.33a45.56,45.56,0,0,1-3.25,16.2C103,148.54,89.62,156.12,72,154.93c-2.69-.18-5.35-.7-8-.94-12.49-1.13-19.92-10-27.73-18.2-4.59-4.8-7.91-10.59-11.71-16a40.77,40.77,0,0,0-3-3.4,19.78,19.78,0,0,1,2-.75c1.94-.51,3.61-1.32,4-3.52.42-2.46-.77-4.17-2.76-5.42-2.16-1.36-4.35-2.67-6.88-4.22a28.82,28.82,0,0,1,10.29-2.2c2.09-.11,4.1-.49,5.24-2.49,1.38-2.42.12-4.9-3-6.32-9.17-4.25-14.59-11.9-19.54-21.22,2.8.66,3.85,2.32,5.26,3.36,11.73,8.64,24.94,14,39,17.26A129.14,129.14,0,0,0,86.53,94.2C99.52,94,108.83,88,115,76.72c4.63-8.46,7.29-17.7,10.71-26.65,2.22-5.8,4.58-11.53,9.26-16,7.8-7.4,24.85-6.16,29.7,3.29C167.48,42.88,176.79,51.91,177.6,58.41Z" transform="translate(-0.06)" style="fill:#fefefe"/><path d="M153.86,16.88a7.12,7.12,0,0,1,2.6-3.19c2.3-1.15,5.69-.81,8.13,2.44,1.84,2.45-.85,5.82-3,7.27a35.73,35.73,0,0,0-20.28-2.18,19.55,19.55,0,0,0-4.63,1.42,44.12,44.12,0,0,0-3.82,2.44s-3.36-4.54-2.44-7.32c.82-2.44,3.26-4.88,6.51-4.07a7.78,7.78,0,0,1,4.71,2.61,10.66,10.66,0,0,1,1-4.23,6.28,6.28,0,0,1,4.89-3.19c2-.1,4.06.71,4.87,2.37A29.65,29.65,0,0,1,153.86,16.88Z" transform="translate(-0.06)" style="fill:#fcfcfc"/><path d="M152.62,37.28a6.34,6.34,0,0,1,6.28,6.55,6.52,6.52,0,0,1-6.55,6.35A6.78,6.78,0,0,1,146,43.55,6.54,6.54,0,0,1,152.62,37.28Z" transform="translate(-0.06)" style="fill:#888"/></svg>