<svg id="Icon3" xmlns="http://www.w3.org/2000/svg" viewBox="0 0 234.03 200.04"><title>Icon3</title><path d="M163.3,116.3c-13.75,6.51-27.63,8-42.1,4.21-4.39-1.15-6.57-3.51-7.58-7.89a57.8,57.8,0,0,1,5.08-40.54,21.06,21.06,0,0,1-8.16-13.92c-1.8-12.88,5-22.57,17.73-25,10-1.94,19.78-.48,29.46,1.73a14.63,14.63,0,0,0,9.52-.81c8.33-3.5,16.72-6.88,26.19-6.17,3.25-4.81,2.6-9.68.49-14.46-2.24-5.07-5.47-6.32-10.51-4-2.52,1.15-4.67,1.78-6.25-.94-1.85-3.2.5-4.87,2.81-6.32a13.25,13.25,0,0,1,17.4,2.5c5.9,6.54,7.6,14.25,5.18,22.74-.76,2.64-1.77,5.14,2.14,6.69,6.66-2.69,13.7-3.46,20.72,0,8.69,4.22,11.32,13.83,5.77,20.94-1.54,2-3.33,3-5.69,1.78-2.21-1.09-2.44-3.17-1.5-5.09,1.36-2.79,3.44-5.47.72-8.44-2.92-3.18-6.84-3.87-10.93-3.39a39.92,39.92,0,0,0-5.9,1.66c1.56,9.87-1.24,18.64-5.36,27-2,4-2,7.8-1.08,12,1.91,8.39,3.09,16.88,1.55,25.54-1.56,8.83-5.27,16-14.61,18.48C178.62,127.2,170.07,125.37,163.3,116.3Z" transform="translate(-0.07 0.04)" style="fill:#888"/><path d="M79.94,130.75c3.06.22,5.15-1.21,7.45-1.85a3.81,3.81,0,0,1,4.9,2.25,3.48,3.48,0,0,1-1.92,5c-5.25,2-10.39,4.71-16.51,4.54-4.13-6.92-1.94-14-2-20.86,0-1.5,2-2.2,3.67-2A3.76,3.76,0,0,1,79,121.15C79.51,124.18,79.64,127.27,79.94,130.75Z" transform="translate(-0.07 0.04)" style="fill:#888"/><path d="M55.91,165.65c2.91.49,4.18,1.77,4.66,4.35-2,4.94-6.54,8.18-10.41,11.88a3.81,3.81,0,0,1-5.83-.15,3.61,3.61,0,0,1,.26-5.31C48.45,173,51.3,168.41,55.91,165.65Z" transform="translate(-0.07 0.04)" style="fill:#888"/><path d="M11.52,111.52c2.11.32,3.65,1.23,3.87,2.73a85.18,85.18,0,0,0,3.24,13.28,3.51,3.51,0,0,1-2,4.36c-2.16,1-3.93.16-5-1.73a29.9,29.9,0,0,1-3.69-14.4C7.88,113,9.68,112.06,11.52,111.52Z" transform="translate(-0.07 0.04)" style="fill:#888"/><path d="M35,182.72c2-.18,3.44.36,4.22,1.88.87,1.71.85,3.58-.78,4.72-4.33,3.05-9.31,4.75-14.35,6.11-1.81.49-3.43-.67-4.1-2.5s-.3-3.71,1.51-4.54C26.08,186.31,30.75,184.5,35,182.72Z" transform="translate(-0.07 0.04)" style="fill:#888"/><path d="M56.93,100.29c.45-3.05,1.72-4.33,4.3-4.87,5.2,2.15,8.67,6.55,11.91,11.21,1.3,1.87,1.34,3.81-.43,5.28-2,1.64-4,1.35-5.79-.56C63.57,107.68,60.26,104,56.93,100.29Z" transform="translate(-0.07 0.04)" style="fill:#888"/><path d="M34.49,145.8a30.43,30.43,0,0,1-12.27-4.22c-1.81-1.12-2.93-2.83-1.83-5s3-3.07,5.45-1.93A35.62,35.62,0,0,0,35.73,138c2.78.39,5.25,1.63,4.52,5.07C39.59,146.13,37,146.08,34.49,145.8Z" transform="translate(-0.07 0.04)" style="fill:#888"/><path d="M53.39,146c-4.06.22-6.84.22-7.16-3.48-.27-3.27,2.25-3.92,4.73-4.35,3.47-.6,7-1.09,10.43-1.68,2.8-.48,5,.41,5.55,3.25.45,2.52-1.25,4.09-3.75,4.55C59.52,145,55.83,145.61,53.39,146Z" transform="translate(-0.07 0.04)" style="fill:#888"/><path d="M38.5,86.82a39.3,39.3,0,0,1,11.57,2.39c2.35.9,3.56,2.71,2.75,5.21-.73,2.28-2.72,2.69-4.84,2.31-3.44-.62-6.86-1.41-10.31-2-2.75-.44-5.58-.94-5.19-4.51S35.75,86.65,38.5,86.82Z" transform="translate(-0.07 0.04)" style="fill:#888"/><path d="M14.12,106.23c-3.78-.55-4.72-2.83-3.51-5.73a19.9,19.9,0,0,1,11-10.78,3.65,3.65,0,0,1,4.69,1.2c1.16,1.58,1.23,3.82-.27,4.81a34.91,34.91,0,0,0-9.71,9.63C15.89,105.94,14.73,106,14.12,106.23Z" transform="translate(-0.07 0.04)" style="fill:#888"/><path d="M75.3,148.06c-2,5-4.34,10.16-8.39,14.23-1.26,1.26-3.32,1-4.78-.35a3.62,3.62,0,0,1-.7-4.76c2.09-3.82,4.19-7.63,6.41-11.38a3.73,3.73,0,0,1,4.45-1.88C74.23,144.44,75.13,145.79,75.3,148.06Z" transform="translate(-0.07 0.04)" style="fill:#888"/><path d="M5.94,199.93c-3.22.3-5.55-.29-5.84-3.41-.26-2.68,1.7-3.82,4-4.4a2.38,2.38,0,0,1,.65-.1c2.91.11,6.05-2.21,8.7.73a3.14,3.14,0,0,1,.63,3.67C12.21,199.92,8.56,199.41,5.94,199.93Z" transform="translate(-0.07 0.04)" style="fill:#888"/><path d="M101.81,131.27c-2.64.2-4.23-1-4.42-3.65-.18-2.47,6-6.84,9.51-6.76a3.91,3.91,0,0,1,4.12,3.49C111.46,127,106,131,101.81,131.27Z" transform="translate(-0.07 0.04)" style="fill:#888"/><path d="M186.44,57.55c5.69,15.39,10.07,29.62,9.06,44.82-.76,11.34-6.74,16.49-16.33,15.21-6.08-.81-9-3.71-9.68-9.81a37,37,0,0,1,1.59-14.35C174.44,81.31,179.57,69.93,186.44,57.55Z" transform="translate(-0.07 0.04)" style="fill:#fdfdfd"/><path d="M176.91,49.53c-14.06,7.9-28,15.44-44.14,16.72-9.82.78-13.62-2.18-14.49-10.14-.91-8.35,3.14-13.75,11.92-15.16C146.69,38.3,161.78,43.78,176.91,49.53Z" transform="translate(-0.07 0.04)" style="fill:#fdfdfd"/><path d="M152.22,112A20.35,20.35,0,0,1,143,114L120.55,91.6a21.49,21.49,0,0,1,2.27-8.68Z" transform="translate(-0.07 0.04)" style="fill:#fbfbfb"/><path d="M161.74,98.78,137.26,74.16l10.15-2.45,16.64,17C163.35,91.7,162.54,95.27,161.74,98.78Z" transform="translate(-0.07 0.04)" style="fill:#fdfdfd"/><path d="M196.11,61.94C193.55,50.16,188.19,42.23,176,40.6c7.1-5.33,16.05-6.2,20.49-2.59C201.59,42.17,201.74,50.87,196.11,61.94Z" transform="translate(-0.07 0.04)" style="fill:#fbfbfb"/><path d="M172.83,62.45c1.25,4.63-2.05,7.38-3.31,11.09l-6.69-7.23C165.5,64.74,168.56,62.59,172.83,62.45Z" transform="translate(-0.07 0.04)" style="fill:#efefef"/></svg>