<svg id="arrow_right_white" data-name="arrow right white" xmlns="http://www.w3.org/2000/svg" viewBox="0 0 30 55"><title>icon__arrow-right--white</title><path d="M0,3.62A3.89,3.89,0,0,0,1.47,6.5L18.11,23.22q1.58,1.58,3.14,3.16c1.1,1.1,1.1,1.1,0,2.17Q11.4,38.49,1.5,48.43A4.21,4.21,0,0,0,0,51.25a3.37,3.37,0,0,0,1.87,3.34,3.27,3.27,0,0,0,3.71-.4,7.83,7.83,0,0,0,.94-.88L28.2,31.53a5.46,5.46,0,0,0,0-8.08L6.49,1.61A5.31,5.31,0,0,0,4.77.29,3.4,3.4,0,0,0,0,3.62Z" transform="translate(0 0)" style="fill:#fff"/></svg>