<svg id="Icon2" xmlns="http://www.w3.org/2000/svg" viewBox="0 0 199.83 199.82"><title>Icon2</title><path d="M164.53,0c13.66.78,25.17,7.42,31.65,21.1,6.33,13.36,4.71,26.3-4.26,38.16a51.39,51.39,0,0,1-4.63,5.26Q131.6,120.32,75.87,176.06a21,21,0,0,1-9.12,5.64q-28,8.37-55.87,17.1c-3.07.95-6,2-8.73-.62-3-2.86-2-6.05-.83-9.38q11.51-31.45,22.87-63a22.08,22.08,0,0,1,5.6-8.28Q82.38,65.29,134.9,13C142.77,5.11,151.85.17,164.53,0Z" transform="translate(-0.17 -0.01)" style="fill:#888"/><path d="M81.37,153.52c.33-14.92.33-14.92-18.17-16.47-2-4.58.56-9.84-1.5-14.34-2.72-5.93-8.64-3.22-13.19-4.2-.91-2.45,1.28-3.2,2.4-4.32q33.38-33.33,66.85-66.56c6.32-6.3,13.44-10.86,22.79-9.59,9.51,1.28,16.47,6.49,19.86,15.49,3.78,10,1.18,19-6.26,26.43C136,98.2,117.74,116.32,99.6,134.56,93.41,140.78,87.44,147.2,81.37,153.52Z" transform="translate(-0.17 -0.01)" style="fill:#fefefe"/><path d="M63,169.62l-22.85,7.23A36.56,36.56,0,0,0,25,160.37c3.52-9.67,7-19.11,10.38-28.48,4.79-1.1,9.15-.63,13.63-.39,2.49,5.1-1.13,11.21,2.44,15.83,3.83,5,9.88,1.46,15.5,3.39C65.67,156.78,64.4,163,63,169.62Z" transform="translate(-0.17 -0.01)" style="fill:#fefefe"/><path d="M174.61,58.09c-3.49-18.28-14.42-29.28-33.32-32.87,6.86-9.2,14.85-13.92,25.62-12.36a24.28,24.28,0,0,1,20,19.22C189,41.73,184.69,51.12,174.61,58.09Z" transform="translate(-0.17 -0.01)" style="fill:#fdfdfd"/><path d="M142.86,50.14c5.12-.08,8.24,4.71,6.19,8.75a17.7,17.7,0,0,1-3.46,4.16q-28.91,29-57.85,57.87c-.73.74-1.47,1.48-2.26,2.14-2.77,2.3-5.66,2.66-8.39.07-3-2.88-2.78-6.17,0-8.94Q108.13,83,139.37,52C140.4,51,142,50.55,142.86,50.14Z" transform="translate(-0.17 -0.01)" style="fill:#888"/></svg>